<svg viewBox="0 0 300 62" fill="none" xmlns="http://www.w3.org/2000/svg">
  <defs>
    <style>
      @import url('https://fonts.googleapis.com/css2?family=Manrope:wght@500;600&amp;display=swap');
      .brand-text {
        font-family: 'Manrope', -apple-system, BlinkMacSystemFont, "Segoe UI", Roboto, sans-serif;
      }
    </style>
    <linearGradient id="logo-gradient" x1="0%" y1="100%" x2="100%" y2="0%">
      <stop offset="0%" stopColor="#6366f1" />
      <stop offset="50%" stopColor="#db2777" />
      <stop offset="100%" stopColor="#f97316" />
    </linearGradient>
  </defs>

  <!-- Scale and position emblem on the left -->
  <svg viewBox="250 454 1000 611" x="5" y="6" width="82" height="50">
    <path
      d="M 545.605469 749.765625 L 251.324219 1044.28125 L 379.976562 1044.421875 L 508.628906 1044.566406 L 840.355469 712.980469 L 840.355469 584.117188 C 840.355469 513.242188 840.25 455.25 840.121094 455.25 C 839.992188 455.25 707.460938 587.78125 545.605469 749.765625 Z"
      fill="url(#logo-gradient)"
    />
    <path
      d="M 1245.578125 457.882812 C 1244.148438 459.277344 C 1242.980469 460.917969 C 1242.980469 461.195312 1242.507812 461.601562 1241.929688 461.820312 C 1241.355469 462.039062 1240.699219 462.691406 1240.480469 463.269531 C 1240.261719 463.847656 1239.824219 464.320312 1239.511719 464.320312 C 1238.851562 464.320312 1237.445312 465.738281 1237.777344 466.066406 C 1237.894531 466.1875 1237.707031 466.523438 1237.359375 466.8125 C 1237.007812 467.101562 1236.722656 467.195312 1236.722656 467.019531 C 1236.722656 466.835938 1236.347656 467.03125 1235.886719 467.449219 C 1235.429688 467.863281 1235.054688 468.460938 1235.054688 468.773438 C 1235.054688 469.085938 1234.582031 469.523438 1234 469.742188 C 1233.425781 469.964844 1232.78125 470.589844 1232.574219 471.136719 C 1232.363281 471.683594 1231.828125 472.226562 1231.375 472.34375 C 1230.925781 472.460938 1230.289062 473.097656 1229.960938 473.757812 C 1229.632812 474.414062 1229.167969 474.914062 1228.921875 474.867188 C 1228.398438 474.765625 1227.171875 476.019531 1227.210938 476.617188 C 1227.222656 476.84375 1226.695312 477.335938 1226.03125 477.710938 C 1225.371094 478.089844 1224.871094 478.585938 1224.917969 478.816406 C 1225.023438 479.3125 1223.402344 480.863281 1223.023438 480.636719 C 1222.875 480.546875 1222.449219 481.015625 1222.070312 481.675781 C 1221.691406 482.335938 1221.195312 482.839844 1220.964844 482.789062 C 1220.46875 482.6875 1219.246094 483.957031 1219.28125 484.542969 C 1219.292969 484.765625 1218.789062 485.238281 1218.15625 485.589844 C 1217.523438 485.941406 1217.015625 486.414062 1217.027344 486.636719 C 1217.0625 487.222656 1215.839844 488.492188 1215.34375 488.386719 C 1215.113281 488.339844 1214.601562 488.863281 1214.210938 489.550781 C 1213.820312 490.238281 1213.246094 490.800781 1212.9375 490.800781 C 1212.632812 490.800781 1212.085938 491.328125 1211.722656 491.972656 C 1211.359375 492.613281 1210.59375 493.378906 1210.019531 493.671875 C 1209.445312 493.671875 1209.015625 494.109375 1209.0625 494.351562 C 1209.109375 494.59375 1208.785156 515.121094 1208.332031 515.527344 C 1207.882812 515.9375 1207.515625 516.121094 1207.515625 515.945312 C 1207.515625 515.765625 1207.238281 515.851562 1206.894531 516.132812 C 1206.550781 516.417969 1206.359375 516.792969 1206.464844 516.964844 C 1206.699219 517.339844 1205.394531 518.589844 1204.8125 518.558594 C 1204.585938 518.542969 1204.117188 519.039062 1203.765625 519.648438 C 1203.417969 520.265625 1202.664062 521.007812 1202.089844 521.300781 C 1201.519531 521.597656 1201.089844 522.035156 1201.136719 522.273438 C 1201.1875 522.515625 1200.855469 523.046875 1200.40625 523.453125 C 1199.957031 523.859375 1199.585938 524.046875 1199.585938 523.871094 C 1199.585938 523.6875 1199.308594 523.777344 1198.96875 524.058594 C 1198.625 524.34375 1198.433594 524.71875 1198.539062 524.890625 C 1198.769531 525.265625 1197.464844 526.515625 1196.882812 526.480469 C 1196.65625 526.46875 1196.1875 526.960938 1195.839844 527.574219 C 1195.492188 528.1875 1194.738281 528.933594 1194.164062 529.226562 C 1193.589844 529.523438 1193.160156 529.960938 1193.210938 530.199219 C 1193.257812 530.441406 1192.929688 530.972656 1192.480469 531.375 C 1192.027344 531.785156 1191.660156 531.972656 1191.660156 531.792969 C 1191.660156 531.613281 1191.382812 531.703125 1191.039062 531.984375 C 1190.699219 532.265625 1190.503906 532.640625 1190.613281 532.8125 C 1190.851562 533.203125 1189.515625 534.453125 1188.949219 534.367188 C 1188.71875 534.332031 1188.28125 534.828125 1187.972656 535.460938 C 1187.667969 536.101562 1186.988281 536.785156 1186.46875 536.984375 C 1185.941406 537.183594 1185.414062 537.730469 1185.289062 538.207031 C 1185.164062 538.679688 1184.59375 539.246094 1184.015625 539.464844 C 1183.4375 539.464844 1182.714844 540.167969 1182.402344 540.8125 C 1182.097656 541.457031 1181.566406 541.984375 1181.230469 541.984375 C 1180.890625 541.984375 1180.359375 542.507812 1180.054688 543.152344 C 1179.746094 543.796875 1179.066406 544.484375 1178.542969 544.683594 C 1178.015625 544.882812 1177.488281 545.433594 1177.359375 545.90625 C 1177.238281 546.378906 1176.667969 546.949219 1176.085938 547.167969 C 1175.507812 547.386719 1174.777344 548.09375 1174.457031 548.738281 C 1174.457031 548.738281 1174.457031 548.738281 1174.457031 548.738281 C 1174.136719 549.378906 1173.652344 549.859375 1173.378906 549.804688 C 1173.109375 549.746094 1172.882812 549.847656 1172.882812 550.027344 C 1172.882812 550.597656 1014.722656 708.394531 1014.277344 708.273438 C 1014.046875 708.210938 1013.957031 708.320312 1014.078125 708.519531 C 1014.390625 709.027344 1012.0625 711.183594 1011.628906 710.789062 C 1011.4375 710.613281 1011.394531 710.675781 1011.53125 710.921875 C 1011.863281 711.5 1006.683594 716.652344 1006.214844 716.21875 C 1006.015625 716.039062 1005.96875 716.097656 1006.109375 716.34375 C 1006.4375 716.921875 1001.675781 721.65625 1001.207031 721.222656 C 1001.007812 721.042969 1000.964844 721.105469 1001.105469 721.355469 C 1001.4375 721.929688 998.753906 724.570312 998.28125 724.136719 C 998.085938 723.960938 998.042969 724.015625 998.179688 724.261719 C 998.507812 724.839844 983.324219 740.007812 982.847656 739.578125 C 982.652344 739.394531 982.601562 739.449219 982.742188 739.691406 C 983.027344 740.199219 957.082031 766.296875 956.632812 765.957031 C 956.46875 765.832031 956.4375 765.863281 956.5625 766.027344 C 956.835938 766.386719 661.742188 1061.421875 661.105469 1061.421875 C 660.859375 1061.421875 660.21875 1061.894531 659.675781 1062.464844 L 658.699219 1063.507812 L 733.144531 1063.507812 C 774.089844 1063.507812 832.75 1063.613281 863.5 1063.746094 L 919.410156 1063.988281 L 992.847656 990.695312 L 1066.28125 917.40625 L 1066.382812 990.667969 L 1066.488281 1063.925781 L 1248.824219 1063.925781 L 1248.796875 771.046875 C 1248.785156 609.964844 1248.636719 477.421875 1248.472656 466.503906 L 1248.171875 464.835938 Z"
      fill="#0F172A"
    />
  </svg>

  <!-- Wordmark typeset in Manrope Font -->
  <g class="brand-text">
    <text x="96" y="31" font-size="25" font-weight="600" fill="#0F172A" letter-spacing="0.01em">momentrix</text>
    <text x="228" y="19" font-size="11" font-weight="500" fill="#0F172A">©</text>
    <text x="228" y="47" font-size="13.5" font-weight="600" letter-spacing="0.16em" text-anchor="end" fill="#0F172A">media</text>
  </g>
</svg>
