<svg width="3602" height="2129" viewBox="0 0 3602 2129" fill="none" xmlns="http://www.w3.org/2000/svg">
<path fill-rule="evenodd" clip-rule="evenodd" d="M3590.27 9.50665C3585.11 14.5419 3580.89 19.4688 3580.89 20.4722C3580.89 21.4756 3579.18 22.9401 3577.1 23.7356C3575.02 24.5312 3572.66 26.8816 3571.86 28.9698C3571.07 31.0581 3569.49 32.7666 3568.36 32.7666C3565.98 32.7666 3560.9 37.8833 3562.1 39.0766C3562.53 39.5105 3561.85 40.7218 3560.59 41.7705C3559.33 42.8191 3558.29 43.1536 3558.29 42.5118C3558.29 41.8609 3556.94 42.566 3555.28 44.0666C3553.63 45.5673 3552.27 47.7188 3552.27 48.8579C3552.27 49.9879 3550.56 51.5699 3548.47 52.3563C3546.39 53.1519 3544.06 55.4209 3543.31 57.3916C3542.56 59.3624 3540.62 61.324 3538.99 61.7489C3537.36 62.1738 3535.07 64.47 3533.88 66.8565C3532.7 69.2341 3531.01 71.0421 3530.12 70.8703C3528.24 70.4997 3523.81 75.0287 3523.95 77.1893C3523.99 78.0029 3522.08 79.7838 3519.69 81.1488C3517.3 82.5139 3515.5 84.3038 3515.67 85.1355C3516.05 86.9254 3510.19 92.5302 3508.82 91.7076C3508.29 91.3912 3506.75 93.0816 3505.39 95.4682C3504.02 97.8548 3502.23 99.6718 3501.4 99.491C3499.6 99.1204 3495.19 103.704 3495.32 105.819C3495.36 106.633 3493.54 108.332 3491.25 109.607C3488.96 110.872 3487.13 112.581 3487.17 113.395C3487.3 115.51 3482.89 120.093 3481.09 119.714C3480.27 119.542 3478.42 121.431 3477 123.917C3475.59 126.403 3473.52 128.437 3472.41 128.437C3471.31 128.437 3469.33 130.336 3468.02 132.659C3466.71 134.973 3463.94 137.739 3461.87 138.806C3459.8 139.864 3458.25 141.446 3458.42 142.314C3458.59 143.19 3457.41 145.098 3455.78 146.571C3454.16 148.045 3452.83 148.714 3452.83 148.072C3452.83 147.43 3451.82 147.738 3450.59 148.759C3449.35 149.79 3448.65 151.137 3449.04 151.76C3449.88 153.116 3445.17 157.636 3443.06 157.51C3442.25 157.465 3440.55 159.246 3439.29 161.46C3438.03 163.684 3435.31 166.369 3433.24 167.427C3431.17 168.493 3429.62 170.075 3429.79 170.943C3429.97 171.811 3428.78 173.728 3427.16 175.201C3425.53 176.666 3424.2 177.344 3424.2 176.702C3424.2 176.051 3423.19 176.367 3421.96 177.389C3420.72 178.41 3420.03 179.766 3420.41 180.39C3421.25 181.746 3416.54 186.266 3414.43 186.14C3413.62 186.094 3411.92 187.866 3410.66 190.09C3409.41 192.305 3406.69 194.999 3404.61 196.057C3402.54 197.123 3400.99 198.705 3401.17 199.573C3401.34 200.441 3400.16 202.357 3398.53 203.822C3396.9 205.295 3395.57 205.973 3395.57 205.323C3395.57 204.681 3394.57 204.997 3393.33 206.019C3392.1 207.04 3391.4 208.387 3391.79 209.011C3392.66 210.421 3387.83 214.941 3385.78 214.625C3384.95 214.507 3383.37 216.288 3382.26 218.584C3381.16 220.889 3378.71 223.357 3376.82 224.081C3374.93 224.795 3373.02 226.784 3372.57 228.501C3372.12 230.21 3370.05 232.253 3367.97 233.048C3365.88 233.844 3363.27 236.393 3362.15 238.716C3361.04 241.04 3359.13 242.947 3357.91 242.947C3356.69 242.947 3354.77 244.846 3353.66 247.169C3352.55 249.492 3350.09 251.987 3348.2 252.701C3346.3 253.424 3344.4 255.413 3343.94 257.122C3343.5 258.83 3341.43 260.883 3339.34 261.678C3337.25 262.465 3334.61 265.023 3333.45 267.346C3332.29 269.669 3330.54 271.405 3329.56 271.197C3328.58 270.989 3327.77 271.351 3327.77 272.011C3327.77 274.063 2756.65 844.127 2755.04 843.693C2754.2 843.467 2753.88 843.864 2754.32 844.588C2755.45 846.414 2747.04 854.206 2745.48 852.787C2744.78 852.154 2744.63 852.371 2745.13 853.257C2746.32 855.345 2727.62 873.959 2725.92 872.395C2725.2 871.753 2725.04 871.961 2725.54 872.847C2726.73 874.935 2709.54 892.039 2707.84 890.475C2707.12 889.833 2706.97 890.05 2707.48 890.954C2708.67 893.033 2698.99 902.57 2697.27 901.006C2696.57 900.374 2696.41 900.572 2696.91 901.458C2698.09 903.547 2643.26 958.347 2641.55 956.783C2640.84 956.132 2640.66 956.322 2641.16 957.199C2642.2 959.025 2548.51 1053.32 2546.88 1052.08C2546.29 1051.64 2546.18 1051.75 2546.63 1052.34C2547.62 1053.64 1482.03 2119.5 1479.73 2119.5C1478.84 2119.5 1476.52 2121.2 1474.57 2123.27L1471.04 2127.03H1739.86C1887.72 2127.03 2099.54 2127.42 2210.58 2127.9L2412.47 2128.77L2677.65 1863.99L2942.82 1599.22L2943.2 1863.89L2943.58 2128.54H3272.78H3601.99L3601.9 1070.48C3601.86 488.546 3601.32 9.71457 3600.73 6.39688L3599.64 0.367188L3590.27 9.50665Z" fill="black"/>
<path fill-rule="evenodd" clip-rule="evenodd" d="M1062.65 1063.98L0 2127.96L464.564 2128.47L929.128 2129L1528.06 1530.04L2127 931.089V465.55C2127 209.499 2126.62 0 2126.16 0C2125.69 0 1647.11 478.788 1062.65 1063.98Z" fill="url(#paint0_linear_451_61)"/>
<defs>
<linearGradient id="paint0_linear_451_61" x1="2321.5" y1="86.0001" x2="267" y2="2129" gradientUnits="userSpaceOnUse">
<stop stop-color="#F99960"/>
<stop offset="0.5" stop-color="#FE5973"/>
<stop offset="1" stop-color="#692FF4"/>
</linearGradient>
</defs>
</svg>
